<svg xmlns="http://www.w3.org/2000/svg" xmlns:xlink="http://www.w3.org/1999/xlink" width="500" zoomAndPan="magnify" viewBox="0 0 375 374.999991" height="500" preserveAspectRatio="xMidYMid meet" version="1.0"><defs><g/><clipPath id="e1961ad3e7"><path d="M 91.558594 148.945312 L 283.429688 148.945312 L 283.429688 226.042969 L 91.558594 226.042969 Z M 91.558594 148.945312 " clip-rule="nonzero"/></clipPath></defs><g clip-path="url(#e1961ad3e7)"><path stroke-linecap="butt" transform="matrix(0.75, 0, 0, 0.75, 91.55961, 148.946621)" fill="none" stroke-linejoin="miter" d="M -0.00135458 -0.00174416 L 255.826804 -0.00174416 L 255.826804 102.795144 L -0.00135458 102.795144 Z M -0.00135458 -0.00174416 " stroke="#ffffff" stroke-width="16" stroke-opacity="1" stroke-miterlimit="4"/></g><g fill="#ffffff" fill-opacity="1"><g transform="translate(113.900387, 204.374987)"><g><path d="M 23.5 -25.59375 L 23.5 0 L 12.453125 0 L 12.453125 -25.59375 L 1.15625 -25.59375 L 1.15625 -34.40625 L 34.75 -34.40625 L 34.75 -25.59375 Z M 23.5 -25.59375 "/></g></g></g><g fill="#ffffff" fill-opacity="1"><g transform="translate(149.994799, 204.374987)"><g><path d="M 36.34375 -23.84375 C 36.34375 -21.75 35.773438 -19.847656 34.640625 -18.140625 C 33.515625 -16.441406 31.867188 -15.195312 29.703125 -14.40625 L 37.34375 0 L 24.953125 0 L 18.84375 -12.546875 L 14.75 -12.546875 L 14.75 0 L 3.703125 0 L 3.703125 -34.40625 L 24.75 -34.40625 C 27.21875 -34.40625 29.328125 -33.925781 31.078125 -32.96875 C 32.828125 -32.019531 34.140625 -30.738281 35.015625 -29.125 C 35.898438 -27.507812 36.34375 -25.75 36.34375 -23.84375 Z M 25.09375 -23.40625 C 25.09375 -24.300781 24.789062 -25.046875 24.1875 -25.640625 C 23.59375 -26.242188 22.863281 -26.546875 22 -26.546875 L 14.75 -26.546875 L 14.75 -20.203125 L 22 -20.203125 C 22.863281 -20.203125 23.59375 -20.507812 24.1875 -21.125 C 24.789062 -21.738281 25.09375 -22.5 25.09375 -23.40625 Z M 25.09375 -23.40625 "/></g></g></g><g fill="#ffffff" fill-opacity="1"><g transform="translate(188.888778, 204.374987)"><g><path d="M 3.703125 -34.40625 L 33.453125 -34.40625 L 33.453125 -26.15625 L 14.75 -26.15625 L 14.75 -21.40625 L 30.75 -21.40625 L 30.75 -13.5 L 14.75 -13.5 L 14.75 -8.25 L 33.796875 -8.25 L 33.796875 0 L 3.703125 0 Z M 3.703125 -34.40625 "/></g></g></g><g fill="#ffffff" fill-opacity="1"><g transform="translate(224.98319, 204.374987)"><g><path d="M 18.15625 -35 C 22.550781 -35 26.164062 -34.109375 29 -32.328125 C 31.832031 -30.546875 33.28125 -27.90625 33.34375 -24.40625 L 33.34375 -23.796875 L 23 -23.796875 L 23 -24 C 23 -25 22.628906 -25.832031 21.890625 -26.5 C 21.160156 -27.164062 20.046875 -27.5 18.546875 -27.5 C 17.078125 -27.5 15.953125 -27.28125 15.171875 -26.84375 C 14.390625 -26.414062 14 -25.882812 14 -25.25 C 14 -24.351562 14.53125 -23.6875 15.59375 -23.25 C 16.664062 -22.8125 18.382812 -22.363281 20.75 -21.90625 C 23.519531 -21.332031 25.796875 -20.738281 27.578125 -20.125 C 29.359375 -19.507812 30.914062 -18.5 32.25 -17.09375 C 33.582031 -15.695312 34.265625 -13.800781 34.296875 -11.40625 C 34.296875 -7.332031 32.921875 -4.3125 30.171875 -2.34375 C 27.421875 -0.382812 23.75 0.59375 19.15625 0.59375 C 13.78125 0.59375 9.601562 -0.300781 6.625 -2.09375 C 3.644531 -3.894531 2.15625 -7.082031 2.15625 -11.65625 L 12.59375 -11.65625 C 12.59375 -9.914062 13.039062 -8.753906 13.9375 -8.171875 C 14.84375 -7.585938 16.25 -7.296875 18.15625 -7.296875 C 19.550781 -7.296875 20.707031 -7.445312 21.625 -7.75 C 22.539062 -8.050781 23 -8.664062 23 -9.59375 C 23 -10.425781 22.488281 -11.050781 21.46875 -11.46875 C 20.457031 -11.882812 18.800781 -12.328125 16.5 -12.796875 C 13.695312 -13.398438 11.378906 -14.023438 9.546875 -14.671875 C 7.710938 -15.328125 6.113281 -16.40625 4.75 -17.90625 C 3.382812 -19.40625 2.703125 -21.4375 2.703125 -24 C 2.703125 -27.769531 4.160156 -30.546875 7.078125 -32.328125 C 9.992188 -34.109375 13.6875 -35 18.15625 -35 Z M 18.15625 -35 "/></g></g></g></svg>